<svg xmlns="http://www.w3.org/2000/svg" width="400" height="400" viewBox="0 0 400 400">
  <rect width="400" height="400" fill="#0e1a2e"/>
  <rect x="98.0" y="68" width="84" height="22" rx="7" fill="#e33" stroke="#0003"/>
<rect x="98.0" y="90" width="84" height="130" rx="14" fill="#a11" stroke="#0004"/>
<rect x="106.0" y="100" width="68" height="110" rx="9" fill="#c22"/>
<text x="140" y="163.0" font-size="35.28" text-anchor="middle" font-family="monospace" font-weight="bold" fill="#ff8a8a">R</text>
<circle cx="112.0" cy="106" r="4" fill="#fff"/><circle cx="168.0" cy="106" r="4" fill="#fff"/>
<circle cx="112.0" cy="106" r="2" fill="#111"/><circle cx="168.0" cy="106" r="2" fill="#111"/><rect x="218.0" y="68" width="84" height="22" rx="7" fill="#c9a32a" stroke="#0003"/>
<rect x="218.0" y="90" width="84" height="130" rx="14" fill="#8a6d1a" stroke="#0004"/>
<rect x="226.0" y="100" width="68" height="110" rx="9" fill="#a8862a"/>
<text x="260" y="163.0" font-size="35.28" text-anchor="middle" font-family="monospace" font-weight="bold" fill="#ffe680">Y</text>
<circle cx="232.0" cy="106" r="4" fill="#fff"/><circle cx="288.0" cy="106" r="4" fill="#fff"/>
<circle cx="232.0" cy="106" r="2" fill="#111"/><circle cx="288.0" cy="106" r="2" fill="#111"/><text x="200" y="150" font-size="40" text-anchor="middle">⚡</text>
  <text x="200" y="382" font-size="16" text-anchor="middle" font-family="monospace" fill="#a9c2e5">red-vs-yellow</text>
</svg>